<?xml version="1.0" standalone="no"?><!DOCTYPE svg PUBLIC "-//W3C//DTD SVG 1.1//EN" "http://www.w3.org/Graphics/SVG/1.1/DTD/svg11.dtd"><svg t="1596241284808" class="icon" viewBox="0 0 1024 1024" version="1.1" xmlns="http://www.w3.org/2000/svg" p-id="2827" width="256" height="256" xmlns:xlink="http://www.w3.org/1999/xlink"><defs><style type="text/css"></style></defs><path d="M123.341042 153.064903c-32.814781 0-59.659955 26.85872-59.659955 59.659955v59.659955c0 32.801235 26.845174 59.659955 59.659955 59.659955h626.429527c32.798977 0 59.659955-26.85872 59.659955-59.659955V212.724858c0-32.801235-26.85872-59.659955-59.659955-59.659955H123.341042z m0 29.829977h626.429527c16.779927 0 29.829978 13.050051 29.829978 29.829978v59.659955c0 16.779927-13.050051 29.829978-29.829978 29.829977H123.341042c-16.793474 0-29.829978-13.050051-29.829978-29.829977V212.724858c0-16.777669 13.036504-29.829978 29.829978-29.829978z m0 522.024607v59.659955c0 7.807452 7.09399 14.914989 14.914988 14.914988h203.230833l-34.519416 33.557596c-14.318931 14.826935 8.360612 34.490065 20.536897 21.496459l59.659955-59.659955c5.75286-5.592556 5.75286-15.962605 0-21.496459l-59.659955-59.659955c-11.855678-11.826326-34.009155 7.981303-20.536897 21.496459l34.490065 34.43362H153.171019v-44.744966c0-19.834722-29.829978-19.225118-29.829977 0.002258z m417.619685-14.914989c-32.801235 0-59.659955 26.85872-59.659955 59.659955v59.659955c0 32.801235 26.85872 59.659955 59.659955 59.659955h357.95973c32.801235 0 59.659955-26.85872 59.659955-59.659955v-59.659955c0-32.801235-26.85872-59.659955-59.659955-59.659955H540.960727z m0 29.829977h357.95973c16.779927 0 29.829978 13.050051 29.829977 29.829978v59.659955c0 16.779927-13.050051 29.829978-29.829977 29.829978H540.960727c-16.779927 0-29.829978-13.050051-29.829978-29.829978v-59.659955c0-16.777669 13.050051-29.829978 29.829978-29.829978zM123.341042 421.5347c-32.814781 0-59.659955 26.85872-59.659955 59.659955v59.659955c0 32.801235 26.845174 59.659955 59.659955 59.659955h626.429527c32.798977 0 59.659955-26.85872 59.659955-59.659955v-59.659955c0-32.801235-26.85872-59.659955-59.659955-59.659955H123.341042z m0 29.829978h626.429527c16.779927 0 29.829978 13.050051 29.829978 29.829977v59.659955c0 16.779927-13.050051 29.829978-29.829978 29.829978H123.341042c-16.793474 0-29.829978-13.050051-29.829978-29.829978v-59.659955c0-16.779927 13.036504-29.829978 29.829978-29.829977z" fill="#2c2c2c" p-id="2828"></path></svg>